# xmcd
#
# Track frame offsets: 
#        150
#        14497
#        32179
#        43250
#        59984
#        76231
#        92665
#        105744
#        120571
#        128538
#        132248
#        147950
#
# Disc length: 2201 seconds
#
# Revision: 0
# Processed by: cddbd v1.5.2PL0 Copyright (c) Steve Scherf et al.
# Submitted via: ExactAudioCopy v0.95b3
#
DISCID=a808970c
DTITLE=The Beatles  - Let It Be, Take 4  AIFF
DYEAR=1900
DGENRE=
TTITLE0=01 Get Back
TTITLE1=02 Dig A Pony
TTITLE2=03 For You Blue (Both Vocals)
TTITLE3=04 The Long And Winding Road (Get Back Sessions)
TTITLE4=05 Two Of Us
TTITLE5=06 I've Got A Feeling
TTITLE6=07 One After 909
TTITLE7=08 Don't Let Me Down (Rooftop Concert)
TTITLE8=09 I Me Mine (Acetate 4)
TTITLE9=10 Dig It
TTITLE10=11 Across The Universe (Acetate 4)
TTITLE11=12 Let It Be (Both Guitar Solos)
EXTD=
EXTT0=
EXTT1=
EXTT2=
EXTT3=
EXTT4=
EXTT5=
EXTT6=
EXTT7=
EXTT8=
EXTT9=
EXTT10=
EXTT11=
PLAYORDER=
